<svg width="628" height="122" viewBox="0 0 628 122" fill="none" xmlns="http://www.w3.org/2000/svg">
<g filter="url(#filter0_d_3_10)">
<path d="M5.11364 3.27273H5.21364V3.17273H5.11364V3.27273ZM5.11364 12V12.1H5.21364V12H5.11364ZM4.05682 12H3.95682V12.1H4.05682V12ZM4.05682 3.27273V3.17273H3.95682V3.27273H4.05682ZM5.01364 3.27273V12H5.21364V3.27273H5.01364ZM5.11364 11.9H4.05682V12.1H5.11364V11.9ZM4.15682 12V3.27273H3.95682V12H4.15682ZM4.05682 3.37273H5.11364V3.17273H4.05682V3.37273ZM10.6076 12H10.5076V12.1H10.6076V12ZM10.6076 3.27273V3.17273H10.5076V3.27273H10.6076ZM15.5934 3.79688L15.5432 3.88337L15.5435 3.88355L15.5934 3.79688ZM16.9783 5.29261L16.8887 5.33686L16.8887 5.33702L16.9783 5.29261ZM16.9741 9.96733L17.0637 10.0117L17.0638 10.0116L16.9741 9.96733ZM15.5593 11.4759L15.6084 11.5629L15.6087 11.5628L15.5593 11.4759ZM11.6644 11.0625H11.5644V11.1625H11.6644V11.0625ZM16.092 5.79972L16.0008 5.84075L16.0009 5.84094L16.092 5.79972ZM15.0607 4.62358L15.0091 4.70924L15.0095 4.70947L15.0607 4.62358ZM11.6644 4.21023V4.11023H11.5644V4.21023H11.6644ZM13.3008 11.9H10.6076V12.1H13.3008V11.9ZM10.7076 12V3.27273H10.5076V12H10.7076ZM10.6076 3.37273H13.4201V3.17273H10.6076V3.37273ZM13.4201 3.37273C14.2529 3.37273 14.9592 3.54451 15.5432 3.88337L15.6436 3.71038C15.0231 3.35037 14.2805 3.17273 13.4201 3.17273V3.37273ZM15.5435 3.88355C16.1278 4.2198 16.576 4.70324 16.8887 5.33686L17.068 5.24836C16.7386 4.58085 16.2635 4.06713 15.6433 3.7102L15.5435 3.88355ZM16.8887 5.33702C17.2014 5.96793 17.3599 6.72756 17.3599 7.61932H17.5599C17.5599 6.70426 17.3973 5.91275 17.0679 5.24821L16.8887 5.33702ZM17.3599 7.61932C17.3599 8.5167 17.2 9.28352 16.8844 9.92307L17.0638 10.0116C17.3959 9.33864 17.5599 8.54012 17.5599 7.61932H17.3599ZM16.8845 9.92292C16.5692 10.5589 16.1114 11.0468 15.5099 11.3889L15.6087 11.5628C16.2458 11.2004 16.7312 10.6826 17.0637 10.0117L16.8845 9.92292ZM15.5102 11.3888C14.9091 11.7279 14.1741 11.9 13.3008 11.9V12.1C14.2002 12.1 14.9709 11.9227 15.6084 11.5629L15.5102 11.3888ZM11.6644 11.1625H13.2326V10.9625H11.6644V11.1625ZM13.2326 11.1625C13.9666 11.1625 14.5834 11.0209 15.0772 10.7311L14.976 10.5586C14.521 10.8257 13.9418 10.9625 13.2326 10.9625V11.1625ZM15.0772 10.7311C15.57 10.442 15.9376 10.0297 16.1788 9.49723L15.9966 9.4147C15.772 9.91062 15.4321 10.291 14.976 10.5586L15.0772 10.7311ZM16.1788 9.49723C16.4189 8.96717 16.5371 8.34022 16.5371 7.61932H16.3371C16.3371 8.31887 16.2224 8.91635 15.9966 9.4147L16.1788 9.49723ZM16.5371 7.61932C16.5371 6.90416 16.4204 6.28289 16.1831 5.75849L16.0009 5.84094C16.2238 6.33358 16.3371 6.92538 16.3371 7.61932H16.5371ZM16.1832 5.75868C15.9451 5.22967 15.5879 4.82149 15.1119 4.53769L15.0095 4.70947C15.4483 4.97112 15.7786 5.34703 16.0008 5.84075L16.1832 5.75868ZM15.1123 4.53792C14.6356 4.2507 14.047 4.11023 13.3519 4.11023V4.31023C14.0205 4.31023 14.5711 4.44532 15.0091 4.70923L15.1123 4.53792ZM13.3519 4.11023H11.6644V4.31023H13.3519V4.11023ZM11.5644 4.21023V11.0625H11.7644V4.21023H11.5644Z" fill="white"/>
</g>
<defs>
<filter id="filter0_d_3_10" x="0.0568237" y="3.27271" width="21.403" height="16.7273" filterUnits="userSpaceOnUse" color-interpolation-filters="sRGB">
<feFlood flood-opacity="0" result="BackgroundImageFix"/>
<feColorMatrix in="SourceAlpha" type="matrix" values="0 0 0 0 0 0 0 0 0 0 0 0 0 0 0 0 0 0 127 0" result="hardAlpha"/>
<feOffset dy="4"/>
<feGaussianBlur stdDeviation="2"/>
<feComposite in2="hardAlpha" operator="out"/>
<feColorMatrix type="matrix" values="0 0 0 0 0 0 0 0 0 0 0 0 0 0 0 0 0 0 0.25 0"/>
<feBlend mode="normal" in2="BackgroundImageFix" result="effect1_dropShadow_3_10"/>
<feBlend mode="normal" in="SourceGraphic" in2="effect1_dropShadow_3_10" result="shape"/>
</filter>
</defs>
</svg>
