<svg width="1194" height="818" viewBox="0 0 1194 818" fill="none" xmlns="http://www.w3.org/2000/svg">
<path d="M1.86261 811.451C11.6249 811.451 20.2588 816.904 30.1486 815.789C34.5613 815.292 40.3491 813.712 43.5107 810.41C46.4841 807.304 48.2015 803.724 49.4976 799.651C55.6144 780.426 57.4258 759.165 59.3022 739.261C65.5533 672.955 61.4252 606.106 46.2005 541.259C39.8863 514.365 34.4228 487.24 28.6736 460.219C26.0835 448.046 23.9815 436.699 19.0424 425.339C17.0663 420.794 13.9279 417.058 12.7952 412.15C11.0578 404.621 11.2053 396.817 9.67162 389.244C8.45554 383.239 7.77505 377.258 6.89508 371.196C6.60807 369.219 3.43397 358.768 5.68035 361.218C12.3145 368.455 17.6468 378.521 22.6866 386.641C36.8974 409.536 50.7523 432.645 65.1156 455.447C81.6377 481.676 98.4997 507.657 114.746 534.058C141.039 576.784 168.414 619.964 188.585 666.03C196.165 683.342 204.854 700.224 213.747 716.875C218.054 724.94 224.476 731.211 227.977 739.782C229.036 742.376 230.004 748.761 232.229 750.541C237.578 754.82 224.846 738.98 220.689 733.535C207.499 716.258 194.968 697.823 180.342 681.735C157.629 656.751 135.002 627.645 105.983 609.805C93.6036 602.195 72.3066 595.934 58.0875 602.517C51.3386 605.641 38.992 613.076 36.1355 620.217C28.2529 639.924 27.6608 669.033 44.3783 684.598C50.6241 690.413 61.7067 691.653 69.7143 692.407C82.1319 693.576 89.7075 691.218 101.124 688.069C114.317 684.429 125.105 671.632 134.616 662.386C146.711 650.627 154.995 637.792 162.381 622.473C167.686 611.471 168.975 601.172 168.975 588.981C168.975 551.712 177.827 515.242 173.314 477.746C169.591 446.819 161.46 415.516 154.919 385.079C150.198 363.106 145.285 333.093 129.063 315.752C119.167 305.174 108.167 301.612 98.5208 313.67C88.1993 326.572 85.458 340.04 84.8117 356.359C84.0789 374.861 84.0007 394.636 88.803 412.671C97.1093 443.866 117.988 477.454 140.169 500.652C154.3 515.432 168.65 536.412 187.804 545.077C201.322 551.192 212.856 559.831 226.068 566.248C232.623 569.432 239.595 571.463 246.024 574.925C250.338 577.248 255.527 581.346 260.514 581.779C265.177 582.185 271.361 582.631 276.046 581.779C284.955 580.159 281.425 551.036 281.425 545.771C281.425 523.758 279.45 494.614 263.465 477.399C246.323 458.939 227.274 487.939 222.424 501.52C212.013 530.67 220.932 565.599 244.636 585.51C249.467 589.568 253.931 592.799 260.254 592.799C268.774 592.799 269.502 589.025 273.963 581.866C289.453 557.01 280.641 530.482 275.352 504.036C274.175 498.154 265.302 480.915 269.278 497.182C271.924 508.008 284.651 518.785 292.879 525.641C295.977 528.224 300.684 534.463 305.633 533.363C310.502 532.281 307.974 519.154 307.108 516.184C303.731 504.605 297.306 497.575 290.796 487.811C288.344 484.133 284.549 478.603 284.549 474.102C284.549 469.174 287.581 461.101 294.006 465.599C302.792 471.749 309.912 476.793 317.26 485.121C325.51 494.472 335.228 504.311 340.774 515.403C341.724 517.304 345.92 526.219 348.236 526.509C350.186 526.753 345.287 523.907 343.897 522.518C336.156 514.776 331.129 503.606 325.937 494.145C317.907 479.513 308.763 460.702 306.501 443.733C305.714 437.835 305.652 430.304 310.752 426.38C326.729 414.09 346.471 429.069 358.821 439.655C375.005 453.527 388.068 470.16 400.73 487.29C406.972 495.736 409.797 504.678 419.211 510.37C441.586 523.899 456.347 487.292 456.347 469.416" stroke="black" stroke-width="3" stroke-linecap="round"/>
<path d="M275.178 250.764C249.694 253.081 225.759 251.305 216.697 222.825C210.095 202.075 233.723 186.389 247.239 174.93C257.668 166.088 268.469 157.548 277.087 146.817C288.134 133.061 294.066 116.151 300.514 99.9632C305.945 86.3269 311.7 68.7508 312.575 53.8901C313.027 46.2037 312.881 38.2498 312.661 30.5498C312.436 22.6554 306.863 17.6016 306.501 30.463C304.401 105.013 353.479 175.257 404.981 224.734C418.888 238.094 431.852 252.334 446.109 265.341C468.414 285.69 491.129 305.821 510.75 328.854C522.372 342.498 533.411 356.768 544.502 370.849C553.734 382.569 562.73 394.462 567.235 408.853C570.592 419.577 572.704 435.099 567.843 445.903C561.51 459.974 536.959 472.451 523.678 476.878C511.457 480.952 498.248 483.76 486.889 476.531C483.566 474.417 481.302 471.476 478.212 469.416" stroke="black" stroke-width="3" stroke-linecap="round"/>
<path d="M337.65 19.6172C337.65 29.1332 349.219 40.4392 353.876 47.9031C376.224 83.7261 400.57 118.272 428.929 149.507C439.256 160.881 447.107 174.157 457.041 185.862C467.203 197.836 477.569 209.606 488.277 221.09C506.898 241.06 524.366 262.978 541.726 284.082C567.18 315.027 584.274 351.61 608.883 382.997C616.055 392.143 621.809 402.254 626.931 412.497C628.653 415.941 622.757 406.016 620.423 402.953C612.439 392.474 603.686 381.925 597.69 370.155C586.329 347.852 576.606 324.546 576.606 299.267C576.606 289.246 579.413 274.369 590.662 270.72C606.068 265.724 623.732 262.519 635.954 276.1C653.515 295.611 658.764 323.37 671.182 345.947C672.444 348.243 686.532 367.726 689.056 360.784C696.528 340.236 693.64 316.577 686.8 296.056C682.221 282.319 676.561 267.911 676.561 253.02C676.561 251.168 675.539 245.597 677.429 244.517C678.8 243.733 683.823 241.356 682.722 245.211C681.863 248.216 676.892 251.98 675 254.582C670.904 260.213 669.436 267.617 667.971 274.451C659.607 313.486 684.124 369.461 729.576 369.461C755.522 369.461 771.767 338.099 776.517 316.013C780.752 296.317 778.364 272.778 774.608 253.193C772.407 241.717 768.519 224.732 761.419 214.842C750.996 200.325 729.172 190.755 712.396 197.663C698.996 203.18 682.691 211.233 681.334 228.205C679.948 245.52 689.198 257.207 703.459 265.167C720.34 274.589 742.6 254.214 752.743 242.087C760.392 232.941 762.835 222.11 769.489 212.5C775.055 204.459 775.55 202.145 779.727 211.892C788.383 232.09 795.783 252.952 803.414 273.497C806.051 280.594 817.235 305.636 805.844 283.041C793.948 259.445 780.5 231.718 778.165 204.864C777.444 196.57 777.421 183.814 786.582 180.483C799.318 175.852 811.561 177.52 821.983 187.771C839.278 204.783 844.495 225.289 851.83 247.293C852.402 249.009 853.57 253.724 853.566 253.714C844.842 231.904 829.461 212.823 822.85 190.027C818.942 176.55 814.751 156.422 821.462 143C825.848 134.227 834.761 140.582 840.117 143.954C859.44 156.12 865.151 178.703 869.444 199.311C872.47 213.835 872.67 221.603 887.752 227.684C911.485 237.254 943.878 229.302 962.371 212.934C969.078 206.997 981.719 199.524 985.625 191.155C990.825 180.011 983.736 173.189 981.286 163.39C979.272 155.333 976.531 154.897 968.879 150.114C962.262 145.979 955.12 140.104 949.183 135.104C945.086 131.654 934.624 120.167 929.573 119.573C920.896 118.552 926.52 110.966 922.979 107.425C918.477 102.923 906.358 112.181 902.936 114.106C890.436 121.138 886.82 137.387 887.491 150.809C889.001 180.99 903.972 200.037 921.417 222.652C927.196 230.142 936.538 235.877 946.406 235.146C959.838 234.151 969.345 210.275 970.093 199.051C971.136 183.414 969.027 164.654 960.029 151.503C954.367 143.228 948.263 136.701 941.287 129.724C940.074 128.512 935.727 124.473 937.643 128.943C940.573 135.781 951.841 142.779 956.818 148.553C962.014 154.579 968.607 160.594 973.304 166.774C975.308 169.411 978.164 173.898 981.113 175.45C996.945 183.783 1020.74 173.247 1033.17 163.65C1048.17 152.072 1061.77 136.413 1068.4 118.184C1070.43 112.599 1073.81 107.787 1074.73 101.785C1075.53 96.5932 1065.57 92.8326 1062.15 90.5924C1052.1 83.9946 1046.92 75.1057 1040.11 65.43C1034.47 57.4088 1027.84 49.2678 1023.28 40.6147C1017.38 29.4 1009.13 19.3286 1004.19 7.81688C996.837 -9.34673 993.607 14.647 993.607 22.654C993.607 34.072 991.103 47.8162 1003.93 51.7209C1021.1 56.9453 1041.5 54.2356 1059.38 56.7534C1083.79 60.1919 1105.9 66.9187 1128.62 75.8421C1138.21 79.6126 1144.3 88.501 1151.09 95.972C1155.8 101.158 1155.6 108.714 1159.94 114.019C1163.14 117.93 1165.66 121.565 1169.22 125.126C1173.6 129.506 1173.09 130.13 1169.48 132.935C1161.64 139.034 1148.3 142.882 1137.64 144.214C1125.38 145.747 1110.52 150.014 1098.25 149.247C1092.53 148.89 1099.4 141.813 1100.85 140.397C1115.48 126.103 1129.85 111.584 1144.23 97.0132C1159.62 81.4315 1174.05 64.16 1183.8 44.4325C1186.67 38.6313 1187.38 33.5611 1191.96 28.988" stroke="black" stroke-width="3" stroke-linecap="round"/>
</svg>
