<svg width="960" height="500" viewBox="0 0 960 500" fill="none" xmlns="http://www.w3.org/2000/svg">
<path d="M2.25623 491.799C23.6937 508.949 45.6051 484.206 57.9605 468.632C94.681 422.346 104.41 364.398 112.277 307.506C118.302 263.928 123.73 220.034 123.73 175.968C123.73 144.725 121.119 113.522 120.953 82.2598C120.825 58.1691 120.953 34.0745 120.953 9.98306C120.953 8.24293 120.631 -1.37157 121.3 3.56231C130.735 73.1464 144.304 141.777 158.523 210.501C170.613 268.937 188.539 325.425 208.067 381.779C217.899 410.151 229.99 437.671 239.65 466.116C239.778 466.494 241.943 474.794 242.687 472.19C244.985 464.147 240.152 455.569 236.527 448.936C219.054 416.975 202.324 381.782 179.087 353.493C168.446 340.539 155.58 326.125 140.042 319.133C124.52 312.148 104.612 305.281 91.626 318.786C86.1219 324.51 88.484 338.162 89.2833 344.556C91.5986 363.078 97.2004 380.011 106.203 396.356C110.36 403.903 115.281 413.985 122.775 418.915C130.288 423.858 141.577 423.786 150.107 424.468C166.683 425.794 181.1 424.454 196.093 416.833C238.702 395.175 257.576 349.954 268.977 306.465C284.991 245.382 292.752 182.402 292.752 119.396C292.752 99.3184 290.858 82.1785 284.075 63.2579C280.141 52.2857 272.383 36.9485 263.685 28.8115C256.672 22.2511 250.23 18.2817 241.559 15.1023C239.86 14.4791 237.639 10.7021 235.746 11.2846C231.539 12.579 227.375 26.1187 226.288 29.5056C219.07 52.0107 221.85 78.3719 224.379 101.349C227.205 127.013 229.871 153.473 235.312 178.745C241.445 207.231 255.528 231.575 270.713 256.141C283.71 277.168 295.816 299.222 316.092 314.188C330.682 324.956 350.604 327.636 368.152 327.636C388.362 327.636 415.842 326.217 432.793 313.233C446.558 302.689 454.77 286.589 461.947 271.238C473.871 245.731 484.991 218.867 488.411 190.718C489.957 177.991 489.659 171.178 480.688 162.606C473.157 155.409 463.704 151.326 453.27 151.326C426.76 151.326 405.416 179.147 392.88 199.742C371.673 234.583 392.012 290.5 419.084 315.489C436.702 331.752 465.886 337.185 483.291 317.745C513.382 284.138 520.689 232.272 507.413 190.545C506.652 188.155 495.999 161.178 493.009 164.168C486.138 171.039 504.844 191.458 507.673 195.23C514.712 204.616 528.345 227.369 543.334 224.644C553.653 222.768 551.95 191.139 551.317 184.992C549.869 170.944 543.075 158.213 540.731 144.385C539.225 135.5 534.866 113.555 543.421 106.902C548.622 102.856 559.889 108.67 564.158 111.066C589.723 125.418 603.453 157.751 611.012 184.645C619.421 214.562 631.923 247.114 633.224 278.353C633.292 279.97 633.864 290.645 632.877 283.559C627.539 245.222 615.981 208.415 607.975 170.675C603.687 150.461 602.21 125.036 609.103 105.166C615.96 85.4038 622.84 75.1415 644.331 72.4552C655.996 70.997 667.304 70.2745 676.434 78.6156C686.49 87.8022 692.234 99.5976 698.473 111.5C707.655 129.016 717.037 146.396 725.718 164.168C732.1 177.233 740.24 191.957 752.616 200.436C766.013 209.616 784.304 203.702 798.515 199.221C823.481 191.351 838.907 184.104 861.248 169.113C899.329 143.561 925.725 109.493 958.079 77.9215" stroke="black" stroke-width="3" stroke-linecap="round"/>
</svg>
